<svg width="286" height="303" viewBox="0 0 286 303" fill="none" xmlns="http://www.w3.org/2000/svg">
<path opacity="0.5" d="M134.245 93.5714C159.213 81.615 179.854 92.7895 183.506 118.592C184.141 123.055 180.012 128.952 174.971 131.363L93.5183 170.392C88.4771 172.803 84.3489 170.848 84.984 165.766C88.6359 136.543 109.317 105.528 134.245 93.5714Z" fill="url(#paint0_linear)"/>
<path opacity="0.5" d="M106.419 60.0805C106.419 77.901 118.962 86.3063 134.443 78.8784C149.924 71.4504 162.468 51.0236 162.468 33.2031C162.468 15.3825 149.924 6.97722 134.443 14.4052C118.962 21.8331 106.419 42.2599 106.419 60.0805Z" fill="url(#paint1_linear)"/>
<path opacity="0.07" d="M118.208 82.8856C143.176 70.9292 163.817 82.1037 167.469 107.906C168.104 112.369 163.976 118.266 158.935 120.677L77.4819 159.706C72.4407 162.117 68.3125 160.162 68.9476 155.08C72.5994 125.857 93.2405 94.8419 118.208 82.8856Z" fill="url(#paint2_linear)"/>
<path opacity="0.07" d="M90.3825 49.3947C90.3825 67.2152 102.926 75.6205 118.407 68.1926C133.888 60.7646 146.431 40.3378 146.431 22.5173C146.431 4.69672 133.888 -3.70858 118.407 3.71936C102.926 11.1473 90.3825 31.5741 90.3825 49.3947Z" fill="url(#paint3_linear)"/>
<path opacity="0.2" d="M36.4378 186.358C36.4378 184.626 37.436 183.048 39.0017 182.306L100.57 153.13C103.546 151.72 106.975 153.89 106.975 157.182V180.263L36.4378 213.689V186.358Z" fill="url(#paint4_linear)"/>
<path d="M92.6452 167.004C92.6452 169.48 94.4314 170.652 96.6543 169.61C98.8772 168.567 100.663 165.701 100.663 163.225C100.663 160.749 98.8772 159.576 96.6543 160.618C94.4314 161.661 92.6452 164.528 92.6452 167.004Z" fill="#FF4F4F"/>
<path opacity="0.15" d="M88.9139 165.929L67.7171 175.995V179.612L88.9536 169.545L88.9139 165.929Z" fill="#FEFEFE"/>
<path opacity="0.15" d="M88.9139 173.194L43.7416 194.598V198.279L88.9139 176.875V173.194Z" fill="#FEFEFE"/>
<path opacity="0.2" d="M179.735 151.5C179.735 149.767 180.733 148.189 182.3 147.447L243.869 118.3C246.844 116.892 250.272 119.061 250.272 122.353V145.437L179.735 178.862V151.5Z" fill="url(#paint5_linear)"/>
<path d="M235.942 132.145C235.942 134.621 237.728 135.793 239.951 134.751C242.174 133.708 243.96 130.841 243.96 128.365C243.96 125.889 242.174 124.717 239.951 125.759C237.728 126.802 235.942 129.669 235.942 132.145Z" fill="#C8C8C8"/>
<path opacity="0.15" d="M232.33 131.232L219.548 137.292V140.973L232.33 134.914V131.232Z" fill="#FEFEFE"/>
<path opacity="0.15" d="M232.211 138.497L187.038 159.902V163.583L232.211 142.179V138.497Z" fill="#FEFEFE"/>
<path opacity="0.3" d="M134.28 189.114C134.282 185.821 130.852 183.649 127.876 185.059L3.19533 244.141C1.63062 244.883 0.632629 246.459 0.631424 248.19L0.593704 302.531L122.456 244.802L132.364 247.458C133.313 247.712 134.245 246.997 134.246 246.015L134.28 189.114Z" fill="url(#paint6_linear)"/>
<path d="M107.134 214.047C107.134 218.771 110.508 220.954 114.715 218.967C118.923 216.979 122.297 211.539 122.297 206.847C122.297 202.124 118.923 199.941 114.715 201.928C110.547 203.915 107.134 209.356 107.134 214.047Z" fill="white"/>
<path opacity="0.15" d="M99.9093 212.223L70.6148 226.101V231.119L99.9093 217.24V212.223Z" fill="#FEFEFE"/>
<path opacity="0.15" d="M99.9093 222.29L12.4228 263.73V268.747L99.9093 227.307V222.29Z" fill="#FEFEFE"/>
<path opacity="0.15" d="M99.9093 232.357L31.5158 264.772V269.79L99.9093 237.374V232.357Z" fill="#FEFEFE"/>
<path opacity="0.3" d="M152.344 201.278C152.345 199.546 153.343 197.97 154.908 197.228L279.588 138.177C282.564 136.767 285.994 138.939 285.992 142.233L285.957 192.317L164.095 250.047L154.957 261.157C154.066 262.241 152.307 261.61 152.308 260.207L152.344 201.278Z" fill="url(#paint7_linear)"/>
<path d="M179.497 204.73C179.497 209.454 176.083 214.862 171.915 216.849C167.707 218.836 164.333 216.621 164.333 211.897C164.333 207.173 167.747 201.765 171.915 199.778C176.083 197.823 179.497 200.038 179.497 204.73Z" fill="#E91818"/>
<path opacity="0.15" d="M186.721 196.096L216.015 182.218V187.235L186.721 201.114V196.096Z" fill="#FEFEFE"/>
<path opacity="0.15" d="M186.681 206.131L274.168 164.691V169.708L186.721 211.148L186.681 206.131Z" fill="#FEFEFE"/>
<path opacity="0.15" d="M186.681 216.198L255.075 183.782V188.799L186.681 221.215V216.198Z" fill="#FEFEFE"/>
<path opacity="0.2" d="M230.345 234.051C227.963 235.158 226.058 237.895 226.058 240.175V250.112L218.04 253.891C215.658 254.999 213.753 257.735 213.753 259.983C213.753 262.231 215.658 263.143 218.04 262.036L226.058 258.224V268.16C226.058 270.408 227.963 271.321 230.345 270.213C232.727 269.105 234.632 266.369 234.632 264.121V254.184L242.65 250.405C245.032 249.297 246.937 246.561 246.937 244.313C246.937 242.065 245.032 241.153 242.65 242.26L234.632 246.04V236.103C234.672 233.823 232.727 232.91 230.345 234.051Z" fill="url(#paint8_linear)"/>
<path opacity="0.2" d="M57.8728 106.766L46.8378 124.554C45.3294 126.997 45.5675 129.441 47.3935 130.027C49.2194 130.613 51.9186 129.082 53.427 126.639L53.5461 126.411V146.153C53.5461 148.401 55.4514 149.314 57.8331 148.206C60.2148 147.066 62.1201 144.362 62.1201 142.114V122.371L62.2392 122.469C63.7476 123.479 66.4865 122.436 68.2727 120.123C70.0987 117.81 70.3369 115.138 68.8285 114.129L57.8728 106.766Z" fill="url(#paint9_linear)"/>
<defs>
<linearGradient id="paint0_linear" x1="31.2473" y1="74.0736" x2="118.039" y2="151.214" gradientUnits="userSpaceOnUse">
<stop stop-color="white"/>
<stop offset="1" stop-color="white" stop-opacity="0"/>
</linearGradient>
<linearGradient id="paint1_linear" x1="82.921" y1="15.8014" x2="169.712" y2="92.9414" gradientUnits="userSpaceOnUse">
<stop stop-color="white"/>
<stop offset="1" stop-color="white" stop-opacity="0"/>
</linearGradient>
<linearGradient id="paint2_linear" x1="15.204" y1="63.3841" x2="101.996" y2="140.524" gradientUnits="userSpaceOnUse">
<stop stop-color="white"/>
<stop offset="1" stop-color="white" stop-opacity="0"/>
</linearGradient>
<linearGradient id="paint3_linear" x1="66.8778" y1="5.11157" x2="153.669" y2="82.2514" gradientUnits="userSpaceOnUse">
<stop stop-color="white"/>
<stop offset="1" stop-color="white" stop-opacity="0"/>
</linearGradient>
<linearGradient id="paint4_linear" x1="63.7567" y1="170.583" x2="75.4264" y2="195.217" gradientUnits="userSpaceOnUse">
<stop stop-color="white"/>
<stop offset="1" stop-color="white" stop-opacity="0"/>
</linearGradient>
<linearGradient id="paint5_linear" x1="207.053" y1="135.728" x2="218.723" y2="160.362" gradientUnits="userSpaceOnUse">
<stop stop-color="white"/>
<stop offset="1" stop-color="white" stop-opacity="0"/>
</linearGradient>
<linearGradient id="paint6_linear" x1="76.8781" y1="183.884" x2="65.1806" y2="299.483" gradientUnits="userSpaceOnUse">
<stop stop-color="white"/>
<stop offset="1" stop-color="white" stop-opacity="0"/>
</linearGradient>
<linearGradient id="paint7_linear" x1="181.489" y1="175.546" x2="239.773" y2="231.149" gradientUnits="userSpaceOnUse">
<stop stop-color="white"/>
<stop offset="1" stop-color="white" stop-opacity="0"/>
</linearGradient>
<linearGradient id="paint8_linear" x1="222.067" y1="246.742" x2="239.591" y2="263.592" gradientUnits="userSpaceOnUse">
<stop stop-color="white"/>
<stop offset="1" stop-color="white" stop-opacity="0"/>
</linearGradient>
<linearGradient id="paint9_linear" x1="50.0287" y1="124.71" x2="68.0877" y2="136.976" gradientUnits="userSpaceOnUse">
<stop stop-color="white"/>
<stop offset="1" stop-color="white" stop-opacity="0"/>
</linearGradient>
</defs>
</svg>
